<svg xmlns="http://www.w3.org/2000/svg" width="1127.993" height="276.407" viewBox="0 0 1127.993 276.407">
  <g id="logo" transform="translate(-8 86.86)">
    <path id="Path_103" data-name="Path 103" d="M339.738-82.866c-33.3,7.908-72.425,37.877-87.825,67.846L246.086-3.365,239.842-15.02c-10.406-19.563-32.882-39.542-57.024-51.2-21.644-10.406-27.055-10.822-98.647-12.071L8-79.952V187.27H68.354c32.882,0,69.927-2.081,82-4.579,42.872-9.157,72.008-29.969,89.074-62.851l6.66-12.487,8.325,13.736c30.385,50.78,87.825,76.587,148.179,66.181,28.72-4.995,58.273-17.482,61.6-26.639,1.249-2.914-2.5-12.9-8.741-21.228-5.827-8.741-11.655-20.4-12.9-25.806-3.33-11.655-6.66-12.071-16.649-.832-30.385,33.3-90.739,23.725-112.8-18.314-22.477-43.7-7.908-96.982,33.3-117.794,19.979-10.406,49.948-8.741,69.095,3.746,24.558,16.233,33.3,34.131,38.293,76.587,6.66,62.019,31.217,97.4,82.414,121.124,19.563,9.157,29.136,10.822,58.689,10.822,52.445-.416,92.4-20.812,117.378-59.521l11.655-18.731V187.27h62.435V-25.009h42.872c47.034,0,58.689,4.162,62.435,23.309,3.33,17.482-4.162,37.045-16.233,42.456-5.411,2.914-23.309,4.995-39.126,4.995H807.168V57.405c0,33.715,23.309,78.668,52.029,100.312,17.9,13.736,61.6,29.553,81.582,29.553H952.85V130.246l-17.065-2.5c-16.233-2.081-49.948-20.4-49.116-27.055,0-1.665,9.573-7.492,21.644-13.319,15.817-7.908,24.558-15.817,34.131-31.218,10.822-17.9,12.487-23.725,12.487-51.613,0-38.71-8.741-56.192-35.8-71.176-17.482-9.99-21.228-10.406-106.556-11.655l-88.658-1.249v68.262L711.851-27.507a148.461,148.461,0,0,0-58.689-49.116c-27.055-12.487-89.906-12.071-116.545.416-10.406,4.579-22.477,11.238-26.639,14.568-7.908,6.243-7.908,6.66,1.249,19.147,4.995,7.076,11.654,19.563,15.4,28.3L532.87.8,544.109-9.609c17.066-15.4,29.136-20.4,51.2-20.4,75.338,0,102.81,109.886,37.877,151.093-35.38,22.477-77.836,12.487-100.312-23.725-9.157-14.152-12.487-25.806-14.984-50.78-4.578-49.948-22.893-84.912-57.44-108.637C427.98-84.531,380.529-92.439,339.738-82.866ZM154.1-14.187c46.618,27.471,47.867,98.647,2.081,132.362-8.741,6.66-19.147,9.157-46.618,10.406L74.6,129.83V-26.258l32.882,2.081C129.54-22.928,144.525-19.6,154.1-14.187Z" transform="translate(0 0)" fill="#0152bc"/>
    <path id="Path_104" data-name="Path 104" d="M240-57.945V-30.89h40.791c45.786,0,56.192,4.162,56.192,22.893,0,19.563-13.736,27.055-49.532,27.055h-30.8V69.006h26.639c27.888,0,47.867,4.995,53.278,13.736,5.827,9.157,3.33,26.639-4.995,34.131-6.244,5.827-17.482,7.908-49.948,9.573L240,128.528v52.862h42.872c52.029,0,79.084-7.076,98.231-25.806,17.066-16.649,21.228-27.055,21.228-54.527,0-23.309-7.908-42.456-20.812-51.613-7.492-5.411-7.492-5.827,2.081-16.233,12.071-12.9,16.233-32.466,13.32-58.689-2.5-23.309-12.9-37.877-36.212-49.948C344.891-83.751,336.982-85,291.2-85H240Z" transform="translate(733.662 5.88)" fill="#0152bc"/>
  </g>
</svg>
